# xmcd
#
# Track frame offsets: 
#        150
#        14391
#        30144
#        40724
#        57210
#        73427
#        92367
#        105498
#        117735
#        130968
#
# Disc length: 1935 seconds
#
# Revision: 4
# Processed by: cddbd v1.5.2PL0 Copyright (c) Steve Scherf et al.
# Submitted via: ExactAudioCopyFreeDBPlugin 1.0
#
DISCID=7e078d0a
DTITLE=Marvin Gaye_Diana Ross - Diana and Marvin_2016
DYEAR=1973
DGENRE=R&B
TTITLE0=You Are Everything
TTITLE1=Love Twins
TTITLE2=Don't Knock My Love
TTITLE3=U're A Special Part O Me
TTITLE4=Pledging My Love
TTITLE5=Just Say, Just Say
TTITLE6=Stop Look Listen_2 Ur Hrt
TTITLE7=I'm Falling in Luv w- U
TTITLE8=My Mistake was 2 Luv U
TTITLE9=Include Me in Ur Life
EXTD=YEAR: 1973
EXTT0=
EXTT1=
EXTT2=
EXTT3=
EXTT4=
EXTT5=
EXTT6=
EXTT7=
EXTT8=
EXTT9=
PLAYORDER=
